<svg width="64" height="64" viewBox="0 0 64 64" fill="none" xmlns="http://www.w3.org/2000/svg">
<circle cx="32" cy="32" r="31" fill="#F5F2F1" stroke="#D7D7D7" stroke-width="2"/>
<mask id="mask0_88_5166" style="mask-type:alpha" maskUnits="userSpaceOnUse" x="2" y="2" width="60" height="60">
<circle cx="32" cy="32" r="30" fill="#D9D9D9"/>
</mask>
<g mask="url(#mask0_88_5166)">
<path fill-rule="evenodd" clip-rule="evenodd" d="M-27.0273 72.2934L-24.5175 67.453C-24.5175 67.453 -25.9517 64.5846 -24.9358 63.6285C-23.9199 62.6724 -22.2467 62.6126 -21.5894 61.2382C-20.8723 59.8638 -20.454 57.7723 -19.9162 56.7564C-19.3784 55.8003 -9.15981 49.2867 -9.15981 49.2867L9.78336 36.8571L12.7115 36.9169L15.7591 34.5863L18.1494 35.0046L17.6714 32.8533L19.8824 31.3594L21.3764 28.9691L22.5715 29.3276L23.9459 28.6105L25.5594 30.3435C25.5594 30.3435 26.0972 33.7497 26.5155 34.8851C26.9936 36.0205 28.368 40.1438 29.1448 41.3389C29.9815 42.5938 30.7583 43.0719 31.6547 43.4902C32.551 43.9085 34.4633 43.6695 34.4633 43.6695C34.4633 43.6695 35.4791 41.9365 36.495 40.4425C37.5109 38.8888 40.7976 34.7058 41.0964 34.407C41.3952 34.1082 42.4708 33.6899 43.9647 33.7497C45.4587 33.8094 47.5502 34.8253 47.5502 34.8253C47.5502 34.8253 51.3747 35.7217 53.4064 37.0364C55.4382 38.2913 58.8444 42.056 60.0993 43.0121C61.3542 43.9085 64.9397 45.8805 66.6726 46.6573C68.4056 47.4342 69.063 49.2867 70.6167 49.705C72.2301 50.183 83.7634 51.438 83.7634 51.438C83.7634 51.438 85.7951 52.5136 86.2134 53.1112C86.5719 53.7087 88.2452 54.3063 88.2452 54.3063L91.4123 54.7844L91.2331 59.9833C91.2331 59.9833 89.5598 59.804 88.2452 59.6845C86.9305 59.6248 85.9146 59.7443 85.6158 60.1028C85.3768 60.4614 83.5243 60.7004 83.5243 60.7004L80.2974 60.2821L71.2142 61.0589L62.8482 58.2503C62.8482 58.2503 59.7408 58.7284 59.0237 58.5491C58.3066 58.3698 54.5418 55.621 53.3467 56.2186C52.2113 56.8161 51.4344 56.2783 50.9564 58.0113C50.4783 59.7443 50.1198 62.4931 49.6417 63.8675C49.1637 65.242 44.8611 73.2495 44.5026 74.6239C44.144 75.9984 43.8452 81.018 44.0843 82.5717C44.3233 84.1254 43.8452 86.4559 43.8452 86.4559L42.0525 87.2926C42.0525 87.2926 37.7499 89.9219 36.9133 90.878C36.0767 91.8341 33.8059 93.9257 31.8937 94.583C29.9814 95.2403 22.0934 96.3757 21.5556 96.6147C21.0178 96.8538 12.1139 103.009 12.1139 103.009L10.6797 103.905L7.09428 100.379C7.09428 100.379 4.88324 96.555 3.68809 94.8818C2.49293 93.2086 1.4173 91.8939 1.4173 91.8939L5.7796 70.4409C5.7796 70.4409 6.49669 68.5286 6.31742 68.1103C6.1979 67.692 5.30155 65.1822 5.30155 65.1822L6.31742 63.0309L4.04663 62.0151L3.26979 59.2065L0.64044 60.9992L-3.48283 61.4175L-6.47072 66.3176L-13.5819 69.9031L-18.3027 71.7556L-21.3504 74.9227C-21.3504 74.9227 -22.0077 73.7276 -23.1431 73.13C-24.2187 72.5324 -27.0273 72.2934 -27.0273 72.2934Z" fill="#E55217"/>
<path fill-rule="evenodd" clip-rule="evenodd" d="M-22.3675 72.9506C-22.3675 72.9506 -21.5907 72.0543 -21.1126 71.0981C-20.6346 70.142 -19.9772 69.3054 -19.9772 69.3054C-19.9772 69.3054 -22.5468 67.5724 -23.3237 67.5724C-24.1603 67.5724 -24.3993 67.3334 -24.5786 66.1382C-24.8176 64.8833 -24.3993 63.2101 -24.3993 63.2101C-24.3993 63.2101 -21.7102 62.3735 -21.5309 61.4771C-21.2919 60.5808 -20.9334 58.2502 -20.5151 57.7124C-20.0968 57.1746 -18.7223 56.0392 -18.7223 56.0392C-18.7223 56.0392 -18.3638 57.5331 -18.1845 58.7283C-18.0052 59.9234 -18.065 61.4771 -16.9894 62.6723C-15.9137 63.8675 -14.4198 65.3614 -15.9735 65.6602C-17.5272 65.959 -18.6028 64.3455 -20.0967 64.8833C-21.5907 65.4211 -21.5309 65.6004 -21.1126 66.3175C-20.6943 67.0346 -18.7821 68.5883 -17.4674 68.7078C-16.1527 68.8273 -15.1966 68.5883 -12.9258 66.9748C-10.655 65.3614 -9.40013 65.7797 -8.56352 64.226C-7.72692 62.6723 -8.20498 62.1345 -6.53177 60.3417C-4.91831 58.549 -4.44025 57.7722 -0.854792 56.1587C2.73067 54.5453 5.06122 56.1587 7.51128 54.127C9.96134 52.0952 13.009 49.4061 13.0687 50.422C13.1285 51.4379 13.3078 55.5014 13.0687 58.4295C12.8297 61.4174 12.3517 65.5407 12.6505 68.1102C12.8895 70.7396 12.1126 73.6079 14.5029 74.325C16.8932 75.0421 18.3274 74.6238 22.9287 72.6518C27.4703 70.6798 28.9045 69.3652 31.1753 68.6481C33.4461 67.9907 35.5376 67.3932 35.1193 68.6481C34.701 69.8432 17.6701 80.4203 13.7261 81.4362C9.78209 82.3923 10.1406 83.7668 12.2919 83.6472C14.4432 83.5277 19.8214 82.6911 23.4068 81.0179C26.9923 79.3447 31.2351 80.0618 29.7411 81.3764C28.3069 82.6911 16.953 84.9021 13.3675 87.2327C9.78206 89.5035 9.06498 92.8499 6.01734 91.834C2.9697 90.8182 1.89408 90.5194 1.77456 89.1449C1.65504 87.7705 5.77831 68.7676 5.77831 68.7676L5.00147 65.5407L5.83807 63.2699L3.92582 62.1942L3.20874 59.6247L0.698912 61.0588L-3.2451 61.6564L-7.00982 66.6761L-18.543 72.0543L-21.2321 74.6836L-22.3675 72.9506Z" fill="#B74212"/>
<path fill-rule="evenodd" clip-rule="evenodd" d="M43.0072 87.0535C43.0072 87.0535 43.9633 87.4718 44.0829 84.962C44.2024 82.4521 44.0829 76.5361 44.3817 75.6398C44.6804 74.7434 47.011 69.3055 47.3098 68.8274C47.6086 68.3493 49.7001 62.9712 49.9391 62.0748C50.1781 61.1187 51.194 56.8161 51.9111 56.6966C52.6282 56.5771 53.9429 56.3381 55.3173 57.0552C56.6917 57.7722 59.6199 58.9076 60.2174 58.7284C60.815 58.5491 62.7273 57.6527 63.9224 58.2503C65.1176 58.8479 69.4201 61.0589 69.4201 61.0589C69.4201 61.0589 77.5471 60.9394 78.1447 60.8796C78.7423 60.8199 83.1644 61.0589 83.1644 61.0589L85.5547 60.8796L86.8693 59.9235L90.9926 60.2821L91.5305 57.8918C91.5305 57.8918 89.5584 57.6527 88.7816 57.593C88.0645 57.5332 86.5108 57.3539 86.5108 57.3539C86.5108 57.3539 85.7339 57.2942 84.001 57.7722C82.2082 58.3101 78.9813 58.1906 75.5752 57.8918C72.169 57.593 69.8982 56.7564 67.3286 56.099C64.759 55.4417 63.4443 54.3661 59.9784 53.7087C56.5722 53.0514 56.9307 48.8684 54.0026 50.9599C51.0147 53.1112 49.5208 53.5295 48.2659 55.3819C47.011 57.2344 45.1585 60.8199 43.067 63.3895C40.9755 65.959 40.3779 67.0347 39.601 68.1701C38.8242 69.3055 38.0474 71.0384 38.9437 71.0384C39.7803 71.0384 41.2145 70.5006 42.3499 68.5286C43.4853 66.5566 45.2183 65.0627 45.6963 65.72C46.1744 66.3773 45.3378 67.692 44.2024 70.4409C43.067 73.1897 42.1109 75.341 40.7365 76.5361C39.362 77.7313 37.8083 79.1057 37.3303 80.5997C36.7924 82.0936 38.2266 82.7509 39.7206 82.8705C41.2145 82.9302 41.2145 84.0059 40.0791 85.201C38.9437 86.3364 37.6888 87.5316 37.3303 88.4279C36.9717 89.3243 39.362 88.5474 39.362 88.5474L43.0072 87.0535Z" fill="#B74212"/>
<path fill-rule="evenodd" clip-rule="evenodd" d="M8.52734 38.2915C8.52734 38.2915 10.6189 39.3672 11.814 40.2635C13.0092 41.1599 13.9055 41.2794 14.2043 40.8013C14.5031 40.3233 13.7263 38.8293 15.2202 38.1123C16.7141 37.3952 21.7935 38.8293 23.2875 40.4428C24.7814 42.0563 26.8132 44.6258 27.59 43.9087C28.3669 43.1917 30.2791 46.1795 31.9524 46.2393C33.6256 46.2991 37.5098 45.9405 38.8245 44.8649C40.1391 43.7295 43.7246 40.6221 44.0831 40.144C44.5014 39.6659 46.832 38.5903 46.8918 38.1123C46.8918 37.6342 46.2344 36.4988 45.8759 36.7378C45.5173 36.9769 43.7246 39.3672 42.888 39.6062C42.0514 39.8452 41.6928 38.7098 41.6928 38.7098C41.6928 38.7098 43.3063 36.2 42.4697 36.3793C41.6331 36.5586 40.0196 38.411 39.6611 38.8293C39.3025 39.2476 38.8842 37.6939 38.5257 37.9927C38.2269 38.2915 35.2988 42.8929 35.2988 42.8929C35.2988 42.8929 34.9402 43.61 34.1036 43.9685C33.0877 44.4466 30.0999 43.0124 29.8608 42.4746C29.6218 41.9965 28.7852 39.9647 27.7693 37.933C26.7534 35.9012 25.9168 32.8536 25.5583 32.7341C25.1997 32.6146 25.7376 34.8256 24.901 34.228C24.1241 33.6304 23.0485 31.3596 22.5106 31.5987C21.9728 31.8377 22.8692 33.3914 22.3911 33.8695C21.9131 34.4073 21.1362 34.8256 20.1801 34.1682C19.1642 33.5109 17.9691 33.3316 17.73 34.1682C17.5508 35.0049 16.4751 34.9451 14.9812 35.4232C13.4275 35.961 11.1567 37.3354 11.1567 37.3354L8.52734 38.2915Z" fill="#B74212"/>
<path fill-rule="evenodd" clip-rule="evenodd" d="M51.2539 36.3192C51.2539 36.3192 54.7796 40.9802 56.154 42.2949C57.5285 43.6693 59.7992 46.1792 60.8749 46.0596C61.9505 45.8804 64.3408 45.8206 64.3408 45.8206C64.3408 45.8206 59.3212 42.5339 58.6041 41.5181C57.887 40.5022 54.0028 37.7533 53.6442 37.4545C53.3454 37.1558 51.2539 36.3192 51.2539 36.3192Z" fill="#B74212"/>
<path fill-rule="evenodd" clip-rule="evenodd" d="M38.3477 32.1962C38.3477 32.1962 38.5269 34.4669 39.1842 34.706C39.8416 34.945 41.6941 34.2279 41.6941 34.2279C41.6941 34.2279 44.1441 33.5108 46.0564 34.1681C47.9686 34.8255 48.2674 35.6023 48.2674 35.6023C48.2674 35.6023 50.8968 35.7218 52.57 36.5585C54.2432 37.4548 57.5896 40.6817 57.5896 40.6817L60.697 43.6696C60.697 43.6696 62.0117 43.4306 62.3702 41.9366C62.7287 40.3829 63.0873 38.7695 62.6092 37.0963C62.1909 35.4231 61.3543 33.0328 59.7409 31.7778C58.1274 30.5229 52.809 29.5071 52.809 29.5071C52.809 29.5071 51.6736 30.1046 51.3748 29.9851C51.076 29.8656 50.0601 27.7143 49.5223 26.8777C48.9845 26.0411 47.1918 24.846 47.1918 24.846C47.1918 24.846 46.2954 24.2484 46.2954 24.9057C46.2954 25.5631 45.9369 27.4753 44.921 28.1924C43.9051 28.9095 40.3197 31.1205 40.3197 31.1205L38.3477 32.1962Z" fill="#89B5BF"/>
<path fill-rule="evenodd" clip-rule="evenodd" d="M25.6211 30.463C25.6211 30.463 25.6809 32.8533 26.2187 34.1082C26.7565 35.3631 27.6529 37.3351 28.1309 38.7693C28.6687 40.2035 29.4456 41.9365 30.2224 42.6536C30.9993 43.3707 32.0749 43.8487 32.9713 43.8487C33.9274 43.8487 35.1226 43.3109 35.1226 43.3109C35.1226 43.3109 36.019 42.5341 36.5568 41.7572C37.0946 40.9804 39.4251 38.0522 39.4251 38.0522L41.4569 34.168C41.4569 34.168 40.441 35.3034 39.4251 34.7058C38.4093 34.1082 38.5288 31.957 38.5288 31.957C38.5288 31.957 34.8835 33.2119 33.6884 32.9728C32.4335 32.7338 28.9675 31.7777 28.9675 31.7777L25.6211 30.463Z" fill="#E9BB8D"/>
<path fill-rule="evenodd" clip-rule="evenodd" d="M26.6977 18.87C26.6977 18.87 25.2037 19.109 25.1439 20.0054C25.0842 20.9017 24.4866 24.8457 24.4866 24.8457L23.7695 25.3238L24.3074 29.5666C24.3074 29.5666 27.1757 30.941 28.9087 31.7179C30.5819 32.4947 33.2113 33.3313 34.4662 33.0923C35.7211 32.8533 38.6492 32.1959 39.5456 31.6581C40.4419 31.0605 45.1628 28.0129 45.1628 28.0129L46.4177 25.025C46.4177 25.025 46.7762 20.9017 45.8201 19.7663C44.9238 18.6309 43.5493 17.7346 43.5493 17.7346L41.3383 16.2406L39.8444 14.1491C39.8444 14.1491 37.2748 13.7906 35.9601 13.2528C34.6454 12.7149 33.2112 12.1771 32.0161 12.8942C30.8209 13.6113 29.9246 14.6869 29.805 15.0455C29.6855 15.404 28.7892 17.3163 28.7892 17.3163L26.6977 18.87Z" fill="#827F16"/>
<path fill-rule="evenodd" clip-rule="evenodd" d="M37.1553 13.4917C37.1553 13.4917 35.1832 14.5673 34.5259 14.9856C33.8686 15.4637 34.4064 17.4357 34.9442 17.6747C35.482 17.9138 39.5455 18.2126 38.8882 19.2882C38.2309 20.3638 36.5577 20.7821 35.8406 21.7383C35.1235 22.6346 34.4661 23.9493 34.8844 25.0847C35.3027 26.2201 35.6016 27.475 35.9601 27.5945C36.3187 27.714 40.0834 25.981 41.0395 25.3835C41.9956 24.7859 41.9956 26.2201 41.9956 26.2201C41.9956 26.2201 37.2748 28.4909 36.5577 29.5068C35.8406 30.4629 36.4382 31.8373 36.4382 31.8373L37.7528 32.1958L45.2225 28.2518C45.2225 28.2518 46.5372 25.264 46.597 24.7261C46.6567 24.2481 45.8201 19.9455 45.8201 19.9455C45.8201 19.9455 44.5054 18.3918 43.3103 17.6747C42.1151 17.0174 41.4578 16.3003 41.159 15.643C40.8004 14.9856 37.1553 13.4917 37.1553 13.4917Z" fill="#ADA91D"/>
<path fill-rule="evenodd" clip-rule="evenodd" d="M-23.9157 67.0348C-23.9754 66.4372 -24.1547 65.7799 -24.1547 65.0628C-24.1547 64.5249 -24.0949 63.9871 -23.7364 63.5688C-23.3779 63.1505 -22.84 62.9115 -22.3022 62.6127C-21.6449 62.1944 -21.0473 61.7761 -20.6888 61.1188C-20.3302 60.4017 -20.2107 59.6846 -20.0912 58.9675C-19.9717 58.3699 -19.8521 57.7723 -19.4338 57.2943C-17.4021 54.7247 -13.8764 53.171 -11.1873 51.438C-5.62983 47.7928 -0.311401 43.7293 5.54485 40.5621C7.27782 39.606 8.95103 38.3511 10.8035 37.5742C11.1621 37.4547 11.5804 37.4547 11.9389 37.4547C12.2975 37.4547 12.7158 37.395 13.0146 37.2755C13.6121 36.9767 14.0304 36.4986 14.5085 36.1998C15.4646 35.6022 16.5403 35.423 17.6159 35.6022C17.9147 35.662 18.2732 35.4827 18.333 35.1242C18.3928 34.8254 18.2135 34.4668 17.8549 34.4071C16.4207 34.1083 15.0463 34.3473 13.8512 35.1242C13.3731 35.423 13.0145 35.901 12.4767 36.1401C12.2377 36.2596 11.9389 36.2596 11.6401 36.2596C11.1621 36.2596 10.7438 36.2596 10.2657 36.4388C8.41323 37.2157 6.68024 38.5304 4.88751 39.4865C-0.96874 42.7134 -6.34693 46.7769 -11.9044 50.4221C-14.6532 52.2149 -18.3582 53.8881 -20.4497 56.5174C-20.9875 57.1747 -21.1668 57.9516 -21.3461 58.7285C-21.4656 59.3858 -21.5851 59.9834 -21.8241 60.5809C-22.0632 60.9992 -22.4815 61.298 -22.9596 61.5371C-23.5571 61.8956 -24.2145 62.2542 -24.6328 62.7322C-25.1108 63.27 -25.2901 63.8676 -25.3499 64.5847C-25.4096 65.4213 -25.1706 66.3774 -25.1108 67.1543C-25.0511 67.4531 -24.7523 67.6921 -24.4535 67.6323C-24.095 67.6323 -23.8559 67.3335 -23.9157 67.0348Z" fill="#EA7545"/>
<path fill-rule="evenodd" clip-rule="evenodd" d="M2.91385 59.6846C2.91385 59.7444 2.91385 59.7444 2.91385 59.6846C2.97361 60.0432 2.97361 60.3419 2.97361 60.6407C2.97361 61.059 2.9736 61.4773 3.15288 61.8359C3.3919 62.3737 3.81021 62.6725 4.34803 62.8518C4.58706 62.9115 4.76633 62.9713 5.00537 63.0908C5.18464 63.1505 5.3639 63.2103 5.48342 63.3896C5.54318 63.5689 5.48343 63.6884 5.36391 63.8676C5.2444 64.1067 5.12488 64.3457 5.00537 64.525C4.82609 65.003 4.88585 65.5409 5.00537 66.0189C5.12488 66.497 5.30415 66.9153 5.48342 67.3933C5.60294 67.7519 5.72245 68.0507 5.72245 68.469C5.72245 69.3056 5.3639 70.1422 5.12487 70.919C4.70657 72.2337 4.34802 73.6081 3.98948 74.9228C3.15287 78.4485 2.43579 82.034 1.77846 85.6194C1.41991 87.5317 0.88208 89.6232 1.0016 91.5952C1.06135 92.5513 1.4199 93.0891 1.8382 93.6269C2.07723 93.9257 2.37603 94.2245 2.67482 94.5831C3.15288 95.1806 3.45166 95.8977 3.92972 96.4356C4.34802 96.9136 4.5273 97.6307 4.88584 98.4076C5.30415 99.3039 5.84198 100.2 6.85786 100.858C7.15664 101.037 7.51519 100.977 7.69446 100.678C7.87373 100.38 7.81396 100.021 7.51518 99.8417C6.55905 99.1844 6.14075 98.288 5.78221 97.4514C5.48342 96.7941 5.24439 96.1368 4.88584 95.6587C4.40778 95.0611 4.10899 94.4038 3.63093 93.8062C3.33214 93.3879 3.03335 93.0891 2.73456 92.7903C2.43578 92.4318 2.19674 92.0733 2.13699 91.4757C2.01747 89.5634 2.5553 87.6512 2.91385 85.7987C3.57118 82.273 4.28826 78.6875 5.12487 75.1618C5.42366 73.8472 5.78222 72.5325 6.20052 71.2776C6.49931 70.3812 6.85786 69.4251 6.85786 68.469C6.85786 67.9312 6.67858 67.4531 6.49931 66.975C6.37979 66.6165 6.20051 66.1982 6.081 65.8396C6.02124 65.5409 5.96148 65.2421 6.02123 65.003C6.14075 64.7042 6.37979 64.3457 6.49931 63.9872C6.61882 63.6286 6.61882 63.2103 6.43954 62.8518C6.20052 62.3737 5.72245 62.0749 5.24439 61.8956C5.00536 61.8359 4.82609 61.7761 4.64682 61.6566C4.46754 61.5968 4.34802 61.5371 4.28827 61.3578C4.16875 61.1188 4.16875 60.8798 4.22851 60.581C4.22851 60.2224 4.22852 59.8639 4.16876 59.4456C4.109 59.2065 4.04925 58.9078 3.86997 58.7285C3.6907 58.4895 3.45166 58.3699 3.15288 58.3699C2.5553 58.3699 2.07723 58.6687 1.59917 59.1468C1.36014 59.3858 1.12112 59.6846 0.82233 59.9236C0.643057 60.1029 0.463785 60.2822 0.224754 60.3419C-0.372822 60.5212 -0.970394 60.4615 -1.50821 60.4017C-2.28506 60.4017 -3.00216 60.4017 -3.71925 60.8798C-4.67538 61.4773 -5.2132 62.3737 -5.63151 63.2701C-5.99005 64.0469 -6.34859 64.8835 -6.94616 65.5409C-8.49986 67.1543 -10.6511 67.5726 -12.6231 68.5287C-14.5951 69.4849 -16.3879 70.919 -18.5989 71.2178C-18.8977 71.2776 -19.1367 71.5764 -19.1367 71.8752C-19.077 72.174 -18.7782 72.413 -18.4794 72.413C-16.1489 72.1142 -14.2366 70.6203 -12.1451 69.6044C-10.0536 68.5885 -7.78277 68.0507 -6.10956 66.3775C-5.39247 65.6604 -5.03392 64.7042 -4.61562 63.8079C-4.25707 63.0908 -3.89853 62.3139 -3.12168 61.8956C-2.64362 61.5968 -2.10579 61.5968 -1.56798 61.5968C-0.850883 61.5968 -0.133787 61.6566 0.583303 61.4773C1.18088 61.2981 1.71869 60.7602 2.19675 60.2224C2.37602 60.0432 2.55529 59.8639 2.73456 59.6846C2.73456 59.7444 2.85409 59.7444 2.91385 59.6846Z" fill="#EA7545"/>
<path fill-rule="evenodd" clip-rule="evenodd" d="M22.635 28.7302C22.5155 28.6704 22.3363 28.6107 22.2167 28.6107C21.3204 28.4912 20.5435 28.9692 19.9459 29.6266C19.6471 29.9851 19.4679 30.4034 19.3483 30.8217C19.2288 31.1205 19.1691 31.4193 18.9301 31.5986C18.8105 31.7181 18.6313 31.7778 18.5118 31.8376C18.213 31.9571 17.9142 32.0169 17.6154 32.1961C17.1373 32.4949 16.7788 32.9132 16.8385 33.6901C16.8385 33.9291 16.9581 34.1681 17.0178 34.4072C17.1373 34.706 17.2569 34.945 17.4361 35.2438C17.6154 35.5426 17.9739 35.6023 18.2727 35.4828C18.5715 35.3633 18.6313 34.945 18.5118 34.6462C18.3922 34.4072 18.2727 34.2279 18.213 33.9889C18.1532 33.8694 18.0934 33.6901 18.0934 33.5706C18.0934 33.451 18.0934 33.3913 18.0934 33.3315C18.1532 33.2718 18.213 33.2718 18.2727 33.212C18.3922 33.1523 18.5118 33.0925 18.6313 33.0925C19.1093 32.9132 19.5874 32.7937 19.8264 32.4352C20.1252 32.0766 20.3045 31.6583 20.4837 31.24C20.6033 30.9412 20.7228 30.6424 20.9021 30.4034C21.2008 30.0449 21.6192 29.7461 22.0972 29.8058C22.157 29.8058 22.2167 29.8058 22.2167 29.8656C22.2765 29.9253 22.396 29.9851 22.4557 30.0449C22.635 30.1046 22.7546 30.1046 22.8143 30.1046C22.9338 30.1046 23.0533 30.0449 23.1728 29.9253C23.2326 29.8656 23.3521 29.7461 23.4119 29.6863C23.5314 29.6266 23.5912 29.6266 23.7107 29.6266C24.0095 29.6863 24.3082 29.4473 24.368 29.0887C24.4278 28.79 24.1887 28.4912 23.8302 28.4314C23.4119 28.3716 23.1131 28.4314 22.7545 28.6704C22.6948 28.6704 22.635 28.7302 22.635 28.7302Z" fill="#EA7545"/>
<path fill-rule="evenodd" clip-rule="evenodd" d="M60.702 44.2071C61.8374 45.0437 62.913 45.9401 64.2277 46.4779C65.2436 46.8962 66.2595 46.9559 67.2156 47.6133C67.6339 47.9121 67.9327 48.2706 68.2315 48.6292C68.59 49.1072 68.9486 49.5255 69.4266 49.9438C69.9644 50.4219 70.6815 50.6609 71.3388 50.8402C75.5816 51.8561 80.183 51.139 84.366 52.4537C84.7843 52.5732 85.2026 52.872 85.5014 53.2305C85.6209 53.4098 85.6807 53.6488 85.8002 53.8281C85.9197 54.0671 86.1587 54.2464 86.3978 54.3659C87.2941 54.7244 88.4295 54.844 89.3856 55.083C89.804 55.1427 90.282 55.2025 90.5808 55.5013C90.8198 55.7403 91.1784 55.7403 91.4174 55.5013C91.6565 55.2623 91.6565 54.9037 91.4174 54.6647C90.9394 54.1866 90.2223 54.0671 89.6247 53.8878C88.7283 53.7086 87.7124 53.589 86.8758 53.2305C86.7563 53.1707 86.7563 53.111 86.6966 52.9915C86.6368 52.8122 86.5173 52.6329 86.3978 52.4537C85.9795 51.9158 85.3222 51.4378 84.6648 51.1987C80.422 49.8243 75.8207 50.5414 71.5181 49.5853C70.9803 49.4658 70.5022 49.2865 70.0839 48.928C69.7254 48.6292 69.3668 48.2109 69.0681 47.7926C68.7095 47.3145 68.2912 46.8962 67.8132 46.5376C66.7973 45.8206 65.7216 45.7608 64.646 45.2827C63.3911 44.7449 62.435 43.9083 61.3593 43.1315C61.1203 42.9522 60.702 43.0119 60.5227 43.251C60.3434 43.6095 60.4032 44.0278 60.702 44.2071Z" fill="#EA7545"/>
<path fill-rule="evenodd" clip-rule="evenodd" d="M42.7155 87.89C43.4326 87.651 43.8508 87.2924 44.1496 86.9936C44.5082 86.5753 44.6875 86.0375 44.7472 85.4399C44.807 84.9619 44.7472 84.3643 44.807 83.6472C44.8667 81.5557 44.6875 79.4642 44.807 77.3129C44.9265 74.6238 46.4802 72.114 47.7351 69.7834C48.8107 67.8114 49.6474 65.7199 50.3047 63.5686C50.6035 62.6125 50.723 61.2978 51.0815 60.0429C51.3206 58.9673 51.7389 57.8917 52.5157 57.2941C53.0535 56.9355 53.7109 56.9355 54.3682 57.1148C55.6231 57.4136 56.878 58.1904 57.7744 58.6087C58.85 59.0868 59.6866 59.0868 60.5232 59.0271C61.2403 58.9673 61.8977 58.8478 62.794 59.0271C64.288 59.2661 65.5429 60.2222 66.9771 60.7003C69.6662 61.5369 72.7736 61.9552 75.6419 61.7759C77.3151 61.6564 78.9884 61.2381 80.6616 61.1186C81.3189 61.0588 81.9763 61.1783 82.5738 61.2978C83.2909 61.4174 84.0677 61.5369 84.7848 61.4174C85.2031 61.3576 85.5019 61.1783 85.8007 60.9991C86.0995 60.8198 86.3385 60.5808 86.6971 60.521C87.2947 60.4015 87.8923 60.521 88.5496 60.6405C89.3264 60.76 90.0435 60.8795 90.8204 60.76C91.1192 60.7003 91.3582 60.4015 91.2984 60.0429C91.2387 59.7441 90.9399 59.5051 90.5813 59.5649C89.9838 59.6844 89.3264 59.5649 88.7289 59.4454C87.952 59.3258 87.2349 59.2063 86.4581 59.3258C86.0995 59.3856 85.741 59.5649 85.4422 59.7441C85.1434 59.9234 84.9044 60.1625 84.5458 60.2222C83.9482 60.3417 83.2909 60.2222 82.6933 60.1027C81.9762 59.9832 81.1994 59.8637 80.4823 59.9234C78.8091 60.0429 77.1956 60.4612 75.5224 60.5808C72.8333 60.76 69.8455 60.4015 67.3356 59.5649C65.8417 59.0868 64.527 58.1307 62.9733 57.8917C62.1964 57.7721 61.5391 57.8319 60.8818 57.8319C60.0452 57.8917 59.2683 57.9514 58.2525 57.5331C57.2963 57.1148 55.9219 56.338 54.667 55.9794C53.6511 55.7404 52.6352 55.7404 51.8584 56.338C51.0218 56.9355 50.5437 57.8917 50.1852 58.9673C49.7669 60.4015 49.5876 62.0747 49.229 63.2101C48.5717 65.2418 47.7351 67.3334 46.7192 69.1859C45.4046 71.6359 43.7911 74.3848 43.6716 77.1934C43.5521 79.2849 43.7313 81.4362 43.6716 83.5277C43.6716 84.1253 43.6716 84.6033 43.6716 85.0216C43.6716 85.3802 43.6118 85.7387 43.4326 85.9777C43.2533 86.2765 42.8947 86.4558 42.3569 86.6351C42.0581 86.7546 41.8789 87.1131 41.9984 87.4119C42.0581 87.89 42.4167 88.0095 42.7155 87.89Z" fill="#EA7545"/>
<path fill-rule="evenodd" clip-rule="evenodd" d="M46.6601 25.5034C47.915 25.5034 48.5723 26.2802 49.1102 27.1766C49.7675 28.312 50.2455 29.6267 51.0224 30.523C51.62 31.2401 52.4566 31.6584 53.2932 32.017C54.0103 32.3158 54.7871 32.5548 55.4445 32.9731C58.0738 34.6463 59.3287 37.9927 58.6116 41.0404C58.5518 41.3392 58.7311 41.6977 59.0897 41.7575C59.3884 41.8172 59.747 41.6379 59.8068 41.2794C60.5836 37.7537 59.1494 33.9292 56.1018 31.9572C55.3847 31.4791 54.5481 31.2401 53.7713 30.8816C53.1139 30.5828 52.4566 30.284 51.9187 29.7462C51.2017 28.9096 50.7833 27.6547 50.126 26.579C49.4089 25.3241 48.393 24.3082 46.6601 24.3082C46.3015 24.3082 46.0625 24.5473 46.0625 24.9058C46.0625 25.2643 46.3613 25.5034 46.6601 25.5034Z" fill="#2E7080"/>
<path fill-rule="evenodd" clip-rule="evenodd" d="M52.755 30.0448C55.8624 29.746 59.3283 31.24 61.0015 33.9291C61.7784 35.184 62.1369 36.8572 62.1369 38.2914C62.1967 39.8451 61.9577 41.2793 60.9418 42.4744C60.7027 42.7134 60.7625 43.1317 61.0015 43.311C61.2406 43.55 61.6589 43.4903 61.8381 43.2513C63.0333 41.8171 63.3321 40.1439 63.3321 38.2914C63.2723 36.6779 62.854 34.7657 62.0174 33.3315C60.1649 30.2241 56.2209 28.4911 52.6355 28.8497C52.3367 28.9094 52.0977 29.1485 52.0977 29.507C52.0977 29.8655 52.3964 30.1046 52.755 30.0448Z" fill="#2E7080"/>
<path fill-rule="evenodd" clip-rule="evenodd" d="M45.2255 28.8496C45.7035 29.5069 46.0023 30.2838 46.3608 31.0606C46.7791 31.957 47.2572 32.7936 48.2133 33.3314C49.2292 33.929 50.4244 34.0485 51.5 34.2875C52.6354 34.5266 53.7708 34.9449 54.6672 35.662C55.205 36.0803 55.7428 36.6181 55.8623 37.2754C55.9221 37.5742 56.2806 37.8132 56.5794 37.7535C56.8782 37.6937 57.1172 37.3949 57.0575 37.0364C56.8782 36.0803 56.1611 35.3034 55.3843 34.7058C54.3086 33.929 53.0537 33.3912 51.739 33.1521C50.7231 32.9131 49.6475 32.8534 48.7511 32.3155C48.034 31.8972 47.6755 31.2399 47.3767 30.5826C47.0182 29.746 46.7194 28.9094 46.1218 28.1923C45.9425 27.9532 45.5242 27.8935 45.2852 28.0727C45.0462 28.1923 45.0462 28.6106 45.2255 28.8496Z" fill="#2E7080"/>
<path fill-rule="evenodd" clip-rule="evenodd" d="M41.5191 31.7778C42.1765 32.3157 43.0131 32.4949 43.9094 32.6742C44.507 32.7937 45.1046 32.8535 45.4631 33.3315C45.6424 33.5706 46.0607 33.6303 46.2997 33.451C46.5388 33.2718 46.5985 32.8535 46.4193 32.6144C45.8814 31.8974 45.0448 31.6583 44.1484 31.5388C43.4911 31.4193 42.8338 31.3595 42.3557 30.9412C42.1167 30.7022 41.7581 30.762 41.5191 31.001C41.2801 31.24 41.2801 31.5388 41.5191 31.7778Z" fill="#2E7080"/>
<path fill-rule="evenodd" clip-rule="evenodd" d="M38.1719 33.3913C38.1719 33.4511 38.2914 33.5706 38.2914 33.6901C38.411 34.1084 38.4707 34.5865 38.5902 34.945C38.7695 35.3633 39.0085 35.6621 39.3073 35.7816C39.6061 35.9011 40.0244 35.9011 40.5622 35.4828C40.861 35.3036 40.9208 34.945 40.7415 34.6462C40.5622 34.3474 40.2037 34.2877 39.9049 34.467C39.8451 34.5267 39.7854 34.5267 39.7854 34.5267C39.7256 34.3474 39.6061 33.9889 39.5464 33.7499C39.4866 33.3316 39.3671 32.973 39.1878 32.6742C39.0085 32.3754 38.7097 32.1962 38.411 32.1364C38.1122 32.0767 37.8134 32.3157 37.7536 32.6742C37.6939 33.0328 37.8731 33.3316 38.1719 33.3913Z" fill="#2E7080"/>
<path fill-rule="evenodd" clip-rule="evenodd" d="M24.187 23.9495H24.1272C24.0077 23.9495 23.948 23.9495 23.8882 23.9495C23.5297 24.0093 23.4102 24.2483 23.4102 24.4873C23.2907 25.9215 23.4101 27.535 23.6492 28.9691C23.7089 29.2679 24.0077 29.507 24.3065 29.4472C24.6053 29.3874 24.8443 29.0887 24.7846 28.7899C24.6053 27.5947 24.5455 26.3398 24.5455 25.1447C24.6651 25.1447 24.7846 25.0849 24.8443 25.0849C25.0834 24.9654 25.3224 24.7861 25.3224 24.4276C25.3821 23.6507 25.3822 22.8739 25.4419 22.1568C25.5017 21.2006 25.6212 20.3043 26.3383 19.3482C26.6968 18.8701 27.2944 18.7506 27.7725 18.5116C28.2505 18.2725 28.7286 18.0335 29.0871 17.6152C29.3859 17.2566 29.5055 16.8383 29.6847 16.42C29.8042 16.1212 29.864 15.7627 30.0433 15.4639C30.5811 14.3883 31.7762 13.5517 32.9116 13.2529C33.6287 13.0139 34.3458 13.1334 35.0629 13.3724C35.8995 13.6114 36.6764 13.97 37.4532 14.209C37.8715 14.3883 38.4093 14.3883 38.8874 14.448C39.2459 14.5078 39.6045 14.5078 39.9033 14.6871C40.2618 14.8663 40.5008 15.2249 40.6801 15.5834C40.9789 16.0615 41.2179 16.5993 41.5765 17.0176C41.8155 17.2566 42.1143 17.4359 42.4131 17.5554C42.5924 17.6749 42.8314 17.7347 43.0107 17.8542C43.7278 18.3323 44.7437 19.3482 45.2217 20.125C46.0583 21.4397 45.8193 23.2324 45.8193 24.7263C45.8193 25.0849 46.0583 25.3239 46.4169 25.3239C46.7157 25.3239 47.0144 25.0849 47.0144 24.7263C47.0742 22.9934 47.1937 20.9616 46.2376 19.4677C45.6997 18.6311 44.5046 17.4957 43.7278 16.8981C43.4887 16.7188 43.1899 16.5993 42.9509 16.4798C42.7716 16.42 42.5924 16.3005 42.4728 16.181C42.1741 15.8225 41.9948 15.4042 41.7557 14.9859C41.457 14.448 41.0984 13.9102 40.5008 13.6114C40.0825 13.3724 39.5447 13.3126 39.0666 13.2529C38.6483 13.1931 38.2898 13.1931 37.9313 13.0736C37.1544 12.8346 36.3178 12.4163 35.4812 12.237C34.5251 11.998 33.569 11.8785 32.6726 12.1772C31.2384 12.5955 29.7445 13.6712 29.0871 15.0456C28.9079 15.4042 28.7884 15.7627 28.6688 16.181C28.5493 16.4798 28.4895 16.7786 28.3103 16.9579C28.0115 17.3164 27.5932 17.4359 27.1749 17.6152C26.5773 17.8542 25.9797 18.153 25.5614 18.6908C24.8443 19.6469 24.6053 20.6031 24.4858 21.5592C24.2468 22.336 24.2468 23.1129 24.187 23.9495Z" fill="#56540E"/>
<path fill-rule="evenodd" clip-rule="evenodd" d="M24.4294 24.7262C24.9672 25.3835 25.4453 26.1006 26.1026 26.6384C29.8673 29.8056 35.9626 30.4629 40.1457 27.714C41.2213 26.997 42.2969 26.2201 43.3128 25.4433C43.9104 24.9054 44.6275 24.3676 44.9263 23.5908C45.2848 22.7542 45.2848 21.9176 45.2848 21.0212C45.2848 20.3041 45.3446 19.7065 44.986 19.0492C44.8665 18.8699 44.6872 18.8102 44.508 18.9297C44.3287 19.0492 44.2689 19.2285 44.3884 19.4077C44.6872 19.9456 44.6275 20.4236 44.6275 21.0809C44.6275 21.8578 44.6872 22.6346 44.3287 23.3517C44.0299 24.0091 43.4323 24.4871 42.8945 24.9054C41.9384 25.742 40.8627 26.4591 39.7871 27.1762C35.9028 29.8056 30.1661 29.1482 26.5807 26.1603C25.9831 25.6225 25.505 24.9652 25.0269 24.3676C24.9074 24.1883 24.6684 24.1883 24.5489 24.3079C24.3696 24.3079 24.3098 24.5469 24.4294 24.7262Z" fill="#56540E"/>
<path fill-rule="evenodd" clip-rule="evenodd" d="M23.7099 28.8495C23.9489 29.5069 24.5465 29.9252 25.0843 30.2837C26.2795 31.0606 27.5941 31.5386 28.8491 32.0764C30.1637 32.6143 31.4186 33.1521 32.8528 33.2716C36.259 33.4509 39.6054 32.0167 42.414 30.224C43.4299 29.5666 44.9239 28.9093 45.7007 27.9532C46.4776 26.997 46.7763 25.4433 46.8361 24.3079C46.8361 24.1287 46.7166 23.9494 46.4776 23.9494C46.2983 23.9494 46.119 24.0689 46.119 24.3079C46.0593 25.3238 45.88 26.6983 45.1629 27.5349C44.386 28.4312 43.0116 29.0288 42.0555 29.6861C39.3664 31.3594 36.1992 32.7935 32.9126 32.6143C31.5979 32.5545 30.343 31.9569 29.1478 31.4789C27.8929 31.0008 26.638 30.5227 25.5026 29.7459C25.0246 29.4471 24.6063 29.1483 24.3672 28.6105C24.3075 28.4312 24.0684 28.3117 23.8892 28.4312C23.7099 28.491 23.6502 28.6703 23.7099 28.8495Z" fill="#56540E"/>
<path fill-rule="evenodd" clip-rule="evenodd" d="M28.3117 18.093C29.3873 18.0332 30.1642 17.4954 30.8813 16.7783C31.4788 16.121 32.0166 15.3441 32.6142 14.6868C33.2118 14.0295 34.1082 13.4319 35.0045 13.7904C35.1838 13.8502 35.4228 13.7904 35.4826 13.6112C35.5423 13.4319 35.4826 13.1929 35.3033 13.1331C34.1082 12.5953 32.9728 13.3124 32.1362 14.149C31.5386 14.8063 31.0008 15.5832 30.4032 16.2405C29.8654 16.8381 29.208 17.3161 28.3117 17.3161C28.1324 17.3161 27.9531 17.4954 27.9531 17.6747C27.9531 17.9735 28.1324 18.093 28.3117 18.093Z" fill="#56540E"/>
<path fill-rule="evenodd" clip-rule="evenodd" d="M35.1243 13.6114C35.1243 13.7906 35.0048 13.9101 34.8853 14.0297C34.706 14.2089 34.5267 14.3882 34.4072 14.5077C33.8097 15.1053 33.2121 15.7626 32.7938 16.4797C32.1962 17.3761 32.0169 18.4517 31.4193 19.4078C30.9413 20.1847 30.1047 20.7823 29.6864 21.6189C28.6705 23.4116 28.4912 25.9214 28.9095 27.9532C28.9693 28.1325 29.1486 28.252 29.3278 28.252C29.5071 28.1922 29.6266 28.0129 29.6266 27.8337C29.2681 25.9812 29.3876 23.6506 30.3437 22.0372C30.8218 21.2006 31.5986 20.6628 32.0767 19.8261C32.6145 18.9298 32.8535 17.8541 33.4511 16.898C33.8694 16.2407 34.4072 15.5834 34.9451 15.0455C35.1243 14.8663 35.3634 14.6272 35.5426 14.3882C35.7219 14.1492 35.7816 13.9101 35.7816 13.6711C35.7816 13.4918 35.6024 13.3126 35.4231 13.3126C35.3036 13.2528 35.1243 13.4321 35.1243 13.6114Z" fill="#56540E"/>
<path fill-rule="evenodd" clip-rule="evenodd" d="M34.6475 14.9858C34.5877 16.42 34.767 18.0932 35.4243 19.4079C35.8426 20.1847 36.5597 20.6628 37.0975 21.3201C38.472 22.9933 39.4281 24.8458 39.6074 27.0568C39.6074 27.2361 39.7866 27.4154 39.9659 27.4154C40.1452 27.4154 40.3245 27.2361 40.2647 27.0568C40.0854 24.7263 39.0695 22.6945 37.5756 20.9018C37.0975 20.3042 36.3207 19.8262 35.9622 19.1091C35.3048 17.9139 35.2451 16.3602 35.2451 15.0456C35.2451 14.8663 35.1255 14.687 34.8865 14.687C34.8267 14.6273 34.6475 14.8065 34.6475 14.9858Z" fill="#56540E"/>
<path fill-rule="evenodd" clip-rule="evenodd" d="M34.7676 14.926C35.2457 15.165 35.903 15.2247 36.3811 14.926C36.6799 14.7467 36.8592 14.4479 36.8592 14.1491C36.8592 13.7308 36.6201 13.3125 36.3213 13.1332C36.142 13.0137 35.9628 13.0735 35.8433 13.2527C35.7238 13.432 35.7835 13.6113 35.9628 13.7308C36.0823 13.7906 36.2018 13.9698 36.2018 14.0893C36.2018 14.1491 36.2018 14.2686 36.1421 14.3284C35.8433 14.5076 35.425 14.4479 35.1262 14.2686C34.9469 14.2089 34.7079 14.2686 34.6481 14.4479C34.5286 14.6272 34.5884 14.8064 34.7676 14.926Z" fill="#56540E"/>
<path fill-rule="evenodd" clip-rule="evenodd" d="M35.8428 15.1052C36.4403 15.404 36.8586 15.9418 37.2769 16.5394C37.6952 17.1967 38.1136 17.9138 38.5319 18.4517C39.1892 19.2883 40.2051 19.7066 40.9222 20.4834C41.938 21.4993 42.5356 23.292 42.4758 24.7262C42.4758 24.9055 42.5954 25.0848 42.8344 25.0848C43.0137 25.0848 43.1929 24.9652 43.1929 24.7262C43.2527 23.1127 42.5954 21.081 41.46 19.9456C40.7429 19.2285 39.7867 18.7504 39.0697 17.9736C38.6513 17.4358 38.2928 16.7784 37.8745 16.1211C37.3964 15.404 36.8586 14.8064 36.2013 14.4479C36.022 14.3284 35.783 14.4479 35.7232 14.6272C35.6635 14.8064 35.6635 15.0455 35.8428 15.1052Z" fill="#56540E"/>
<path fill-rule="evenodd" clip-rule="evenodd" d="M36.5613 14.8066C37.3979 14.7469 38.0552 15.1054 38.6528 15.5835C39.6687 16.3603 40.2065 17.5555 41.0431 18.3921C41.6407 19.0494 42.4175 19.5275 43.0748 20.0653C43.6724 20.5434 44.2102 21.1409 44.3895 21.9776C44.4493 22.1568 44.6285 22.2763 44.8078 22.2166C44.9871 22.1568 45.1066 21.9776 45.0468 21.7983C44.8078 20.7824 44.2102 20.1251 43.4931 19.5275C42.8358 18.9897 42.1187 18.5116 41.5211 17.914C40.6248 17.0177 40.087 15.8225 39.0113 15.0457C38.2345 14.4481 37.3978 14.0298 36.382 14.0895C36.2027 14.0895 36.0234 14.2688 36.0234 14.4481C36.2027 14.6871 36.382 14.8664 36.5613 14.8066Z" fill="#56540E"/>
<path fill-rule="evenodd" clip-rule="evenodd" d="M9.13241 61.2977C9.37144 67.9906 8.59459 74.9822 6.74211 81.3763C6.68235 81.5555 6.80186 81.7946 6.98113 81.7946C7.16041 81.8543 7.39945 81.7348 7.39945 81.5555C9.25193 75.042 10.0288 67.9906 9.78973 61.2379C9.78973 61.0587 9.61047 60.8794 9.4312 60.8794C9.25193 60.9392 9.13241 61.1184 9.13241 61.2977Z" fill="#89310E"/>
<path fill-rule="evenodd" clip-rule="evenodd" d="M41.9957 70.0822C44.0275 66.5565 46.119 62.971 47.7324 59.2063C47.7922 59.027 47.7324 58.788 47.5531 58.7282C47.3739 58.6685 47.1348 58.7282 47.0751 58.9075C45.4616 62.6125 43.3701 66.1979 41.3981 69.7236C41.2786 69.9029 41.3384 70.1419 41.5176 70.2017C41.6372 70.3212 41.8762 70.2614 41.9957 70.0822Z" fill="#89310E"/>
<path fill-rule="evenodd" clip-rule="evenodd" d="M50.6611 57.4732C51.2587 55.8 51.438 54.7841 53.171 54.067C53.5893 53.8877 54.0076 53.7682 54.4259 53.6487C54.6051 53.589 54.7247 53.4097 54.6649 53.2304C54.6052 53.0511 54.4259 52.9316 54.2466 52.9914C53.7685 53.1109 53.3502 53.2902 52.9319 53.4694C50.9599 54.306 50.6612 55.3817 50.0038 57.2939C49.9441 57.4732 50.0636 57.7122 50.2428 57.772C50.3624 57.772 50.6014 57.6525 50.6611 57.4732Z" fill="#89310E"/>
<path fill-rule="evenodd" clip-rule="evenodd" d="M34.5878 44.9839H34.528C34.3488 45.0437 34.2292 45.2827 34.289 45.462C34.3487 45.6412 34.5878 45.7608 34.7671 45.701C35.6037 45.4022 36.5 45.1034 37.2769 44.6851C38.5318 43.968 39.5477 42.8326 40.6233 41.9363C41.7587 40.9801 42.8343 40.024 43.91 39.0081C45.1649 37.813 46.4796 36.5581 47.9138 35.5422C48.0333 35.4824 48.1528 35.3032 48.0332 35.0641C47.9735 34.8849 47.6747 34.5861 47.615 34.5861C47.1967 34.2275 46.5991 34.1678 46.0612 33.9885C44.5673 33.4507 42.9538 33.3909 41.4599 33.9885C40.9818 34.1678 40.7428 34.5861 40.5635 35.0044C40.3843 35.5422 40.3245 36.1995 40.0257 36.6776C38.9501 38.4703 37.5757 39.8448 36.3805 41.518C36.022 41.996 35.4842 42.4143 35.0659 42.8924C34.5878 43.4302 34.2292 44.0278 34.289 44.8046C34.4085 44.8046 34.528 44.9242 34.5878 44.9839ZM47.1967 35.0641C46.8381 34.7654 46.3003 34.7056 45.882 34.5861C44.5673 34.108 43.1331 34.0483 41.8185 34.5861C41.4599 34.7056 41.3404 35.0641 41.2209 35.4824C41.1014 36.0203 40.9818 36.5581 40.6831 36.9764C39.6074 38.7691 38.233 40.2033 37.0379 41.8168C36.6793 42.3546 36.1415 42.7729 35.6634 43.2509C35.3049 43.6692 35.0061 44.0278 35.0659 44.6254C35.0659 44.6851 35.0658 44.7449 35.0061 44.8046C35.6037 44.5656 36.261 44.3266 36.8586 44.0278C38.0537 43.3107 39.0696 42.2351 40.1453 41.3387C41.2807 40.3826 42.3563 39.4265 43.4319 38.4106C44.6868 37.2752 45.882 36.08 47.1967 35.0641Z" fill="#89310E"/>
<path fill-rule="evenodd" clip-rule="evenodd" d="M35.1848 43.9084C37.8739 42.2352 40.2044 39.8448 42.2362 37.4545C42.3557 37.2753 42.3557 37.096 42.1764 36.9765C41.9971 36.857 41.8179 36.857 41.6984 37.0362C39.7264 39.3668 37.3958 41.6973 34.8262 43.3705C34.647 43.4901 34.5872 43.6693 34.7067 43.8486C34.7665 43.9681 35.0055 44.0279 35.1848 43.9084Z" fill="#89310E"/>
<path fill-rule="evenodd" clip-rule="evenodd" d="M22.8137 31.2398C24.1284 34.5265 25.6223 37.8729 27.6541 40.7413C28.9688 42.5937 30.4029 44.4462 32.7335 44.9841C33.3908 45.1036 34.1079 45.1036 34.7653 45.1036C34.9445 45.1036 35.1238 44.9243 35.1238 44.745C35.1238 44.5657 34.9445 44.3865 34.7653 44.3865C34.1677 44.3865 33.5103 44.4462 32.9128 44.267C30.7615 43.7889 29.5066 41.9962 28.2517 40.323C26.2199 37.5143 24.7857 34.1679 23.4711 30.941C23.4113 30.7617 23.1723 30.6422 22.993 30.7617C22.8137 30.8812 22.6942 31.0605 22.8137 31.2398Z" fill="#89310E"/>
<path fill-rule="evenodd" clip-rule="evenodd" d="M19.2872 35.8412C20.303 36.5582 21.3787 37.2156 22.3348 37.9924C23.5299 38.9485 24.5458 40.1437 25.6215 41.2193C25.741 41.3389 25.98 41.3389 26.0996 41.2193C26.2191 41.0998 26.2191 40.8608 26.0996 40.7413C24.9642 39.6656 23.9483 38.4705 22.7531 37.4546C21.7372 36.618 20.7213 35.9607 19.6457 35.2436C19.4664 35.1241 19.2872 35.1838 19.1676 35.3631C19.0481 35.4826 19.1079 35.7216 19.2872 35.8412Z" fill="#89310E"/>
<path fill-rule="evenodd" clip-rule="evenodd" d="M47.735 35.5424C49.8863 36.14 52.1571 36.7973 54.0096 38.0522C55.4438 39.0083 56.5792 40.1437 57.8341 41.3389C58.6109 42.056 59.4475 42.534 60.1049 43.3706C60.2244 43.5499 60.4634 43.5499 60.5829 43.4304C60.7622 43.3109 60.7622 43.0718 60.6427 42.9523C59.9854 42.1157 59.089 41.5779 58.3121 40.8608C57.0572 39.6657 55.8621 38.4705 54.4279 37.5144C52.4559 36.1997 50.1254 35.5424 47.9143 34.9448C47.7351 34.885 47.5558 35.0046 47.496 35.1838C47.4363 35.3034 47.5558 35.4826 47.735 35.5424Z" fill="#89310E"/>
<path fill-rule="evenodd" clip-rule="evenodd" d="M47.7929 37.9326C48.2112 39.1875 48.2112 40.3827 48.0917 41.6974C48.0917 41.8766 48.2112 42.0559 48.3905 42.1157C48.5697 42.1157 48.749 41.9961 48.8088 41.8169C48.9881 40.3827 48.9283 39.1278 48.51 37.7534C48.4502 37.5741 48.2709 37.4546 48.0319 37.5143C47.8526 37.5741 47.7331 37.7534 47.7929 37.9326Z" fill="#89310E"/>
<path fill-rule="evenodd" clip-rule="evenodd" d="M12.9531 37.9326C13.0726 38.829 13.2519 39.7253 13.6702 40.5022C13.7299 40.6814 13.969 40.7412 14.1483 40.6814C14.3276 40.6217 14.3873 40.3827 14.3275 40.2034C13.969 39.4265 13.7897 38.6497 13.6702 37.8131C13.6702 37.6338 13.4312 37.4545 13.2519 37.5143C13.0726 37.5143 12.9531 37.6936 12.9531 37.9326Z" fill="#89310E"/>
<path fill-rule="evenodd" clip-rule="evenodd" d="M28.8499 44.9842C28.7902 46.2988 28.6706 47.5537 28.6109 48.8086C28.4914 50.7209 28.4316 52.6331 28.1328 54.5454C28.0731 54.7247 28.2523 54.9039 28.4316 54.9637C28.6109 55.0234 28.7902 54.8442 28.8499 54.6649C29.1487 52.7527 29.2682 50.7807 29.3877 48.8684C29.4475 47.5537 29.6268 46.2988 29.6268 44.9842C29.6268 44.8049 29.5073 44.6256 29.2682 44.6256C28.9694 44.6854 28.8499 44.8049 28.8499 44.9842Z" fill="#89310E"/>
<path fill-rule="evenodd" clip-rule="evenodd" d="M27.5352 56.6367C27.5352 56.9952 27.5352 57.4135 27.5352 57.7721C27.5352 57.9514 27.7145 58.1306 27.8937 58.1306C28.073 58.1306 28.2523 57.9514 28.2523 57.7721C28.2523 57.4135 28.2523 56.9952 28.2523 56.6367C28.2523 56.4574 28.073 56.2781 27.8937 56.2781C27.7145 56.2781 27.5352 56.3977 27.5352 56.6367Z" fill="#89310E"/>
<path fill-rule="evenodd" clip-rule="evenodd" d="M36.8566 46.478C36.7371 50.183 36.6175 53.9477 36.1992 57.6527C36.1992 57.8319 36.3187 58.0112 36.498 58.071C36.6773 58.071 36.8566 57.9515 36.9163 57.7722C37.3346 54.0672 37.3944 50.3025 37.5736 46.5377C37.5736 46.3585 37.4541 46.1792 37.2151 46.1792C37.0358 46.1194 36.8566 46.2987 36.8566 46.478Z" fill="#89310E"/>
<path fill-rule="evenodd" clip-rule="evenodd" d="M35.9633 59.0271C35.9035 59.3856 35.9035 59.6844 35.8438 60.0429C35.8438 60.2222 35.9633 60.4015 36.1425 60.4612C36.3218 60.4612 36.5011 60.3417 36.5608 60.1625C36.6206 59.8039 36.6206 59.5051 36.6803 59.1466C36.6803 58.9673 36.5608 58.788 36.3815 58.7283C36.2023 58.6685 36.023 58.8478 35.9633 59.0271Z" fill="#89310E"/>
<path fill-rule="evenodd" clip-rule="evenodd" d="M25.2656 30.8214C25.3851 31.897 25.5644 32.9129 25.8632 33.9288C26.1022 34.7654 26.4608 35.5422 26.7596 36.3789C26.9986 37.0362 27.1779 37.6338 27.4169 38.2911C27.8949 39.546 28.4328 40.9204 29.2096 42.0558C30.0462 43.251 31.1219 44.2071 32.6756 44.3864C33.2732 44.4461 34.3488 44.3266 34.8866 44.0876C34.9463 44.0876 34.9464 44.0278 35.0061 44.0278L37.2172 41.6375C37.2172 41.6375 39.0099 39.546 39.1294 39.2472C39.3087 39.0082 40.0855 37.7533 40.0855 37.7533C40.205 37.574 40.1453 37.335 39.966 37.2752C39.7867 37.1557 39.5477 37.2155 39.4879 37.3947C39.4879 37.3947 38.7111 38.6496 38.5916 38.8887C38.4123 39.1277 36.7988 41.0399 36.6793 41.2192L34.5281 43.49C34.05 43.6693 33.2134 43.7888 32.7353 43.729C31.3609 43.5498 30.4645 42.7729 29.7474 41.6973C29.0304 40.6216 28.4925 39.2472 28.0145 38.0521C27.7754 37.4545 27.5962 36.7972 27.3571 36.1996C27.0584 35.363 26.7596 34.5861 26.5205 33.8093C26.2217 32.8531 26.0425 31.8373 25.9229 30.8214C25.9229 30.6421 25.7437 30.4628 25.5047 30.5226C25.3852 30.4031 25.2656 30.5824 25.2656 30.8214Z" fill="#00171D"/>
<path fill-rule="evenodd" clip-rule="evenodd" d="M25.6835 32.8534C26.4006 33.3912 27.1774 34.0486 27.9543 34.5266C28.1336 34.6461 28.3726 34.5864 28.4323 34.4071C28.5519 34.2278 28.4921 33.9888 28.3128 33.9291C27.536 33.451 26.8189 32.8534 26.1018 32.3156C25.9225 32.1961 25.7432 32.1961 25.6237 32.3754C25.5042 32.4949 25.564 32.7339 25.6835 32.8534Z" fill="#00171D"/>
<path fill-rule="evenodd" clip-rule="evenodd" d="M26.5794 34.8253C26.8782 35.1839 27.2367 35.4229 27.655 35.6022C27.8343 35.6619 28.0733 35.6022 28.1331 35.4229C28.1928 35.2436 28.1331 35.0046 27.9538 34.9449C27.655 34.8253 27.3562 34.5863 27.1172 34.3473C26.9977 34.2278 26.7587 34.168 26.6391 34.3473C26.4599 34.407 26.4599 34.6461 26.5794 34.8253Z" fill="#00171D"/>
<path fill-rule="evenodd" clip-rule="evenodd" d="M32.3167 35.5424C33.6314 35.6022 34.9461 35.5424 36.2608 35.4229C36.44 35.4229 36.6193 35.2436 36.5596 35.0046C36.5596 34.8253 36.3803 34.6461 36.1413 34.7058C34.8266 34.8253 33.5717 34.8851 32.257 34.8253C32.0777 34.8253 31.8984 34.9448 31.8984 35.1839C31.9582 35.3631 32.0777 35.5424 32.3167 35.5424Z" fill="#00171D"/>
<path fill-rule="evenodd" clip-rule="evenodd" d="M32.8547 37.0959C33.6913 37.2154 34.4681 37.2154 35.3047 37.0361C35.484 36.9764 35.6633 36.7971 35.6035 36.6178C35.5437 36.4385 35.3645 36.2593 35.1852 36.319C34.4083 36.4385 33.6913 36.4385 32.9144 36.3788C32.7351 36.3788 32.5559 36.4983 32.4961 36.6776C32.5559 36.9166 32.6754 37.0959 32.8547 37.0959Z" fill="#00171D"/>
<path fill-rule="evenodd" clip-rule="evenodd" d="M29.4492 34.8255C29.4492 35.5426 29.509 36.3195 29.509 37.0366C29.509 37.5146 29.3895 38.2317 29.5687 38.8293C29.6883 39.3074 29.987 39.7257 30.5248 39.8452C30.7639 39.9049 31.0029 39.9049 31.1822 39.9049C31.4212 39.9049 31.72 39.8452 31.959 39.7257C32.1383 39.6659 32.2578 39.4866 32.1981 39.2476C32.1383 39.0683 31.959 38.9488 31.72 39.0086C31.5407 39.0683 31.3615 39.1281 31.1224 39.1281C30.9432 39.1281 30.7639 39.1281 30.6444 39.1281C30.2858 39.0683 30.2261 38.7695 30.1663 38.411C30.1066 37.9329 30.1663 37.3951 30.1663 37.0366C30.1663 36.3195 30.1065 35.5426 30.1065 34.8255C30.1065 34.6463 29.9273 34.467 29.748 34.467C29.6285 34.467 29.4492 34.6463 29.4492 34.8255Z" fill="#00171D"/>
<path fill-rule="evenodd" clip-rule="evenodd" d="M30.9992 41.5781C32.0748 41.6976 33.1504 41.3391 33.987 40.6817C34.1663 40.5622 34.1663 40.3232 34.0468 40.2037C33.9273 40.0244 33.6883 40.0244 33.5688 40.1439C32.8517 40.6817 31.9553 40.9805 31.0589 40.861C30.8797 40.861 30.7004 40.9805 30.6406 41.1598C30.7004 41.3988 30.8199 41.5781 30.9992 41.5781Z" fill="#00171D"/>
</g>
</svg>
