<svg width="178" height="164" viewBox="0 0 178 164" fill="none" xmlns="http://www.w3.org/2000/svg">
<g filter="url(#filter0_d_30_7247)">
<path d="M0 4C0 1.79086 1.79086 0 4 0H56.8814C58.1608 0 59.3629 0.611955 60.1157 1.6464L62.0251 4.27016C62.7778 5.3046 63.98 5.91656 65.2593 5.91656H166C168.209 5.91656 170 7.70742 170 9.91656V152C170 154.209 168.209 156 166 156H4C1.79086 156 0 154.209 0 152V4Z" fill="#FDFAF9"/>
<path d="M2.46885 155.696C1.49109 155.291 0.708984 154.509 0.303522 153.531L0.996317 153.244C0.837841 152.862 0.75 152.442 0.75 152V148.917H0V142.75H0.75V136.583H0V130.417H0.75V124.25H0V118.083H0.75V111.917H0V105.75H0.75V99.5833H0V93.4167H0.75V87.25H0V81.0833H0.75V74.9167H0V68.75H0.75V62.5833H0V56.4167H0.75V50.25H0V44.0833H0.75V37.9167H0V31.75H0.75V25.5833H0V19.4167H0.75V13.25H0V7.08333H0.75V4C0.75 3.55795 0.837841 3.1383 0.996316 2.75614L0.303522 2.46885C0.708983 1.49109 1.49109 0.708984 2.46885 0.303522L2.75614 0.996317C3.1383 0.837841 3.55795 0.75 4 0.75H7.30509V0H13.9153V0.75H20.5255V0H27.1356V0.75H33.7458V0H40.356V0.75H46.9662V0H53.5763V0.75H56.8814C57.1397 0.75 57.3939 0.780664 57.6395 0.839602L57.8145 0.110297C58.4276 0.257398 58.9978 0.547639 59.4775 0.956853L58.9908 1.52745C59.183 1.69141 59.3574 1.87891 59.5093 2.0877L59.9866 2.74364L60.5931 2.30234L61.5477 3.61422L60.9413 4.05552L61.4186 4.71146C61.6405 5.0164 61.8954 5.29053 62.1765 5.5303L62.6632 4.9597C63.143 5.36892 63.7131 5.65916 64.3263 5.80626L64.1513 6.53556C64.5106 6.62176 64.8822 6.66656 65.2593 6.66656H68.4075V5.91656H74.7038V6.66656H81V5.91656H87.2963V6.66656H93.5926V5.91656H99.8889V6.66656H106.185V5.91656H112.482V6.66656H118.778V5.91656H125.074V6.66656H131.37V5.91656H137.667V6.66656H143.963V5.91656H150.259V6.66656H156.556V5.91656H162.852V6.66656H166C166.442 6.66656 166.862 6.7544 167.244 6.91287L167.531 6.22008C168.509 6.62554 169.291 7.40764 169.696 8.3854L169.004 8.6727C169.162 9.05486 169.25 9.4745 169.25 9.91656V12.8766H170V18.7968H169.25V24.7169H170V30.6371H169.25V36.5572H170V42.4774H169.25V48.3975H170V54.3176H169.25V60.2378H170V66.1579H169.25V72.0781H170V77.9982H169.25V83.9184H170V89.8385H169.25V95.7586H170V101.679H169.25V107.599H170V113.519H169.25V119.439H170V125.359H169.25V131.279H170V137.2H169.25V143.12H170V149.04H169.25V152C169.25 152.442 169.162 152.862 169.004 153.244L169.696 153.531C169.291 154.509 168.509 155.291 167.531 155.696L167.244 155.004C166.862 155.162 166.442 155.25 166 155.25H163.107V156H157.321V155.25H151.536V156H145.75V155.25H139.964V156H134.179V155.25H128.393V156H122.607V155.25H116.821V156H111.036V155.25H105.25V156H99.4643V155.25H93.6786V156H87.8928V155.25H82.1071V156H76.3214V155.25H70.5357V156H64.75V155.25H58.9643V156H53.1786V155.25H47.3928V156H41.6071V155.25H35.8214V156H30.0357V155.25H24.25V156H18.4643V155.25H12.6786V156H6.89286V155.25H4C3.55795 155.25 3.1383 155.162 2.75614 155.004L2.46885 155.696Z" stroke="#DDD9D6" stroke-width="1.5" stroke-dasharray="6 6"/>
</g>
<defs>
<filter id="filter0_d_30_7247" x="0" y="0" width="178" height="164" filterUnits="userSpaceOnUse" color-interpolation-filters="sRGB">
<feFlood flood-opacity="0" result="BackgroundImageFix"/>
<feColorMatrix in="SourceAlpha" type="matrix" values="0 0 0 0 0 0 0 0 0 0 0 0 0 0 0 0 0 0 127 0" result="hardAlpha"/>
<feOffset dx="4" dy="4"/>
<feGaussianBlur stdDeviation="2"/>
<feComposite in2="hardAlpha" operator="out"/>
<feColorMatrix type="matrix" values="0 0 0 0 0 0 0 0 0 0 0 0 0 0 0 0 0 0 0.09 0"/>
<feBlend mode="normal" in2="BackgroundImageFix" result="effect1_dropShadow_30_7247"/>
<feBlend mode="normal" in="SourceGraphic" in2="effect1_dropShadow_30_7247" result="shape"/>
</filter>
</defs>
</svg>
